<?xml version="1.0" encoding="utf-8"?>
<!-- Generator: Adobe Illustrator 28.0.0, SVG Export Plug-In . SVG Version: 6.00 Build 0)  -->
<svg version="1.1" id="Layer_1" xmlns="http://www.w3.org/2000/svg" xmlns:xlink="http://www.w3.org/1999/xlink" x="0px" y="0px"
	 viewBox="0 0 2000 2000" style="enable-background:new 0 0 2000 2000;" xml:space="preserve">
<style type="text/css">
	.st0{clip-path:url(#SVGID_00000130626962327188831640000015601536718618290567_);}
	.st1{fill:#FFF399;}
	.st2{fill:#282828;}
	.st3{fill:#1C1C1C;}
	.st4{fill:#FFFFFF;}
	.st5{fill:#A5CECD;}
	.st6{fill:#4C4CCC;}
	.st7{fill:#A6A6CC;}
	.st8{fill:#DD0B16;}
	.st9{fill:#E5A876;}
	.st10{fill:#EFD8BD;}
	.st11{fill:#FFF8F0;}
</style>
<g>
	<defs>
		<rect id="SVGID_1_" width="2000" height="2000"/>
	</defs>
	<clipPath id="SVGID_00000160876069113501197350000000602964443083258293_">
		<use xlink:href="#SVGID_1_"  style="overflow:visible;"/>
	</clipPath>
	<g style="clip-path:url(#SVGID_00000160876069113501197350000000602964443083258293_);">
		<rect class="st1" width="2000" height="2000"/>
		<g>
			<g>
				<path class="st2" d="M712.2,1014.8l-1.6-849.3c-0.1-47.4,38.3-85.9,85.7-85.9h380c47.4,0,87.3,38,87.4,85.4l0.2,849.7
					c0.1,47.4-38.3,85.9-85.7,85.9h-380C750.8,1100.7,712.3,1062.3,712.2,1014.8z"/>
				<path class="st3" d="M1178.2,1102.2h-380c-48.1,0-87.4-39.2-87.5-87.4l-1.6-849.3c0-23.3,9-45.3,25.5-61.8
					c16.5-16.5,38.4-25.6,61.7-25.6h380c48.9,0,88.8,39,88.9,86.9l0.2,849.7c0,23.3-9,45.3-25.5,61.8
					C1223.4,1093.1,1201.5,1102.2,1178.2,1102.2z M713.7,1014.8c0.1,46.5,38,84.4,84.5,84.4h380c22.5,0,43.7-8.8,59.5-24.7
					c15.9-15.9,24.6-37.1,24.6-59.7l-0.2-849.7c-0.1-46.3-38.6-83.9-85.9-83.9h-380c-22.5,0-43.7,8.8-59.5,24.7
					c-15.9,15.9-24.6,37.1-24.6,59.7L713.7,1014.8z"/>
			</g>
			<g>
				<path class="st4" d="M1239.3,165.6l1.6,849.3c0.1,34.7-28,62.9-62.7,62.9h-380c-34.7,0-62.9-28.1-62.9-62.9l-1.6-849.3
					c-0.1-34.7,28-62.9,62.7-62.9h64.3c5.1,0,9.2,4.1,9.2,9.2l0,7.2c0,14.4,9,26.1,20,26.1H1083c11,0,19.9-11.7,19.9-26.1l0-7.2
					c0-5.1,4.1-9.2,9.2-9.2h64.3C1211,102.7,1239.2,130.8,1239.3,165.6z"/>
				<path class="st3" d="M1178.1,1079.2h-380c-35.5,0-64.4-28.9-64.4-64.4l-1.6-849.3c0-17.2,6.6-33.4,18.8-45.5
					c12.1-12.1,28.3-18.8,45.4-18.8h64.3c5.9,0,10.7,4.8,10.7,10.7l0,7.2c0,13.5,8.3,24.6,18.5,24.6H1083c4,0,7.8-1.7,11-4.9
					c4.7-4.7,7.4-11.9,7.4-19.7l0-7.2c0-2.9,1.1-5.5,3.1-7.6c2-2,4.7-3.1,7.6-3.1h64.3c35.5,0,64.4,28.9,64.4,64.4l1.6,849.3
					c0,17.2-6.6,33.4-18.8,45.5C1211.5,1072.5,1195.3,1079.2,1178.1,1079.2z M796.3,104.2c-16.4,0-31.8,6.4-43.3,18
					c-11.6,11.6-17.9,27-17.9,43.4l1.6,849.3c0.1,33.8,27.6,61.4,61.4,61.4h380c16.4,0,31.8-6.4,43.3-18
					c11.6-11.6,17.9-27,17.9-43.4l-1.6-849.3c-0.1-33.8-27.6-61.4-61.4-61.4H1112c-2.1,0-4,0.8-5.4,2.3c-1.5,1.5-2.2,3.4-2.2,5.4
					l0,7.2c0,8.6-3,16.5-8.2,21.8c-3.8,3.8-8.3,5.8-13.1,5.8H889.7c-11.8,0-21.4-12.4-21.5-27.6l0-7.2c0-4.2-3.5-7.7-7.7-7.7H796.3z
					"/>
			</g>
			<g>
				<path class="st3" d="M1240.8,969.4H733.6c-0.8,0-1.5-0.7-1.5-1.5s0.7-1.5,1.5-1.5h507.2c0.8,0,1.5,0.7,1.5,1.5
					S1241.6,969.4,1240.8,969.4z"/>
			</g>
			<g>
				<path class="st3" d="M1095.1,1046.7H788.8c-14.1,0-25.7-11.5-25.7-25.7v-0.9c0-14.1,11.5-25.7,25.7-25.7h306.3
					c14.1,0,25.7,11.5,25.7,25.7v0.9C1120.8,1035.2,1109.3,1046.7,1095.1,1046.7z M788.8,997.5c-12.5,0-22.7,10.2-22.7,22.7v0.9
					c0,12.5,10.2,22.7,22.7,22.7h306.3c12.5,0,22.7-10.2,22.7-22.7v-0.9c0-12.5-10.2-22.7-22.7-22.7H788.8z"/>
			</g>
			<g>
				<g>
					<path class="st5" d="M1120.1,328.5H813.8c-13.3,0-24.2-10.8-24.2-24.2V203.5c0-13.3,10.8-24.2,24.2-24.2h306.3
						c13.3,0,24.2,10.8,24.2,24.2v100.9C1144.2,317.7,1133.4,328.5,1120.1,328.5z"/>
				</g>
				<g>
					<path class="st3" d="M1120.1,330H813.8c-14.1,0-25.7-11.5-25.7-25.7V203.5c0-14.1,11.5-25.7,25.7-25.7h306.3
						c14.1,0,25.7,11.5,25.7,25.7v100.9C1145.7,318.5,1134.2,330,1120.1,330z M813.8,180.8c-12.5,0-22.7,10.2-22.7,22.7v100.9
						c0,12.5,10.2,22.7,22.7,22.7h306.3c12.5,0,22.7-10.2,22.7-22.7V203.5c0-12.5-10.2-22.7-22.7-22.7H813.8z"/>
				</g>
			</g>
			<g>
				<path class="st3" d="M1157.8,1046.3c-0.4,0-0.8-0.2-1.1-0.4c-0.4-0.4-0.6-1.1-0.3-1.7l10.9-23.6l-10.9-23.6
					c-0.3-0.6-0.1-1.2,0.3-1.7c0.4-0.4,1.1-0.6,1.7-0.3l51.8,24.2c0.5,0.2,0.9,0.8,0.9,1.4s-0.3,1.1-0.9,1.4l-51.8,24.2
					C1158.3,1046.3,1158.1,1046.3,1157.8,1046.3z M1160.9,999.5l9.5,20.5c0.2,0.4,0.2,0.9,0,1.3l-9.5,20.5l45.2-21.1L1160.9,999.5z"
					/>
			</g>
			<g>
				<g>
					<circle class="st6" cx="764.5" cy="316.4" r="12.1"/>
				</g>
				<g>
					<path class="st3" d="M764.5,330c-7.5,0-13.6-6.1-13.6-13.6s6.1-13.6,13.6-13.6s13.6,6.1,13.6,13.6S772,330,764.5,330z
						 M764.5,305.8c-5.8,0-10.6,4.7-10.6,10.6c0,5.8,4.7,10.6,10.6,10.6s10.6-4.7,10.6-10.6C775.1,310.6,770.4,305.8,764.5,305.8z"
						/>
				</g>
			</g>
			<g>
				<g>
					<path class="st5" d="M1120.1,459H813.8c-13.3,0-24.2-10.8-24.2-24.2v-26.3c0-13.3,10.8-24.2,24.2-24.2h306.3
						c13.3,0,24.2,10.8,24.2,24.2v26.3C1144.2,448.1,1133.4,459,1120.1,459z"/>
				</g>
				<g>
					<path class="st3" d="M1120.1,460.5H813.8c-14.1,0-25.7-11.5-25.7-25.7v-26.3c0-14.1,11.5-25.7,25.7-25.7h306.3
						c14.1,0,25.7,11.5,25.7,25.7v26.3C1145.7,448.9,1134.2,460.5,1120.1,460.5z M813.8,385.9c-12.5,0-22.7,10.2-22.7,22.7v26.3
						c0,12.5,10.2,22.7,22.7,22.7h306.3c12.5,0,22.7-10.2,22.7-22.7v-26.3c0-12.5-10.2-22.7-22.7-22.7H813.8z"/>
				</g>
			</g>
			<g>
				<g>
					<circle class="st6" cx="764.5" cy="446.9" r="12.1"/>
				</g>
				<g>
					<path class="st3" d="M764.5,460.5c-7.5,0-13.6-6.1-13.6-13.6s6.1-13.6,13.6-13.6s13.6,6.1,13.6,13.6S772,460.5,764.5,460.5z
						 M764.5,436.3c-5.8,0-10.6,4.7-10.6,10.6c0,5.8,4.7,10.6,10.6,10.6s10.6-4.7,10.6-10.6C775.1,441,770.4,436.3,764.5,436.3z"/>
				</g>
			</g>
			<g>
				<g>
					<path class="st5" d="M1120.1,776.4H813.8c-13.3,0-24.2-10.8-24.2-24.2v-79.5c0-13.3,10.8-24.2,24.2-24.2h306.3
						c13.3,0,24.2,10.8,24.2,24.2v79.5C1144.2,765.6,1133.4,776.4,1120.1,776.4z"/>
				</g>
				<g>
					<path class="st3" d="M1120.1,777.9H813.8c-14.1,0-25.7-11.5-25.7-25.7v-79.5c0-14.1,11.5-25.7,25.7-25.7h306.3
						c14.1,0,25.7,11.5,25.7,25.7v79.5C1145.7,766.4,1134.2,777.9,1120.1,777.9z M813.8,650.1c-12.5,0-22.7,10.2-22.7,22.7v79.5
						c0,12.5,10.2,22.7,22.7,22.7h306.3c12.5,0,22.7-10.2,22.7-22.7v-79.5c0-12.5-10.2-22.7-22.7-22.7H813.8z"/>
				</g>
			</g>
			<g>
				<g>
					<circle class="st6" cx="764.5" cy="764.3" r="12.1"/>
				</g>
				<g>
					<path class="st3" d="M764.5,777.9c-7.5,0-13.6-6.1-13.6-13.6s6.1-13.6,13.6-13.6s13.6,6.1,13.6,13.6S772,777.9,764.5,777.9z
						 M764.5,753.7c-5.8,0-10.6,4.7-10.6,10.6c0,5.8,4.7,10.6,10.6,10.6s10.6-4.7,10.6-10.6C775.1,758.5,770.4,753.7,764.5,753.7z"
						/>
				</g>
			</g>
			<g>
				<g>
					<path class="st7" d="M849.1,599h306.3c13.3,0,24.2-10.8,24.2-24.2v-26.3c0-13.3-10.8-24.2-24.2-24.2H849.1
						c-13.3,0-24.2,10.8-24.2,24.2v26.3C825,588.2,835.8,599,849.1,599z"/>
				</g>
				<g>
					<path class="st3" d="M1155.4,600.5H849.1c-14.1,0-25.7-11.5-25.7-25.7v-26.3c0-14.1,11.5-25.7,25.7-25.7h306.3
						c14.1,0,25.7,11.5,25.7,25.7v26.3C1181.1,589,1169.6,600.5,1155.4,600.5z M849.1,525.9c-12.5,0-22.7,10.2-22.7,22.7v26.3
						c0,12.5,10.2,22.7,22.7,22.7h306.3c12.5,0,22.7-10.2,22.7-22.7v-26.3c0-12.5-10.2-22.7-22.7-22.7H849.1z"/>
				</g>
			</g>
			<g>
				<g>
					<circle class="st8" cx="1204.7" cy="586.9" r="12.1"/>
				</g>
				<g>
					<path class="st3" d="M1204.7,600.5c-7.5,0-13.6-6.1-13.6-13.6s6.1-13.6,13.6-13.6s13.6,6.1,13.6,13.6
						S1212.1,600.5,1204.7,600.5z M1204.7,576.3c-5.8,0-10.6,4.7-10.6,10.6c0,5.8,4.7,10.6,10.6,10.6s10.6-4.7,10.6-10.6
						C1215.2,581.1,1210.5,576.3,1204.7,576.3z"/>
				</g>
			</g>
			<g>
				<g>
					<path class="st7" d="M849.1,927.3h306.3c13.3,0,24.2-10.8,24.2-24.2v-43.8c0-13.3-10.8-24.2-24.2-24.2H849.1
						c-13.3,0-24.2,10.8-24.2,24.2v43.8C825,916.5,835.8,927.3,849.1,927.3z"/>
				</g>
				<g>
					<path class="st3" d="M1155.4,928.8H849.1c-14.1,0-25.7-11.5-25.7-25.7v-43.8c0-14.1,11.5-25.7,25.7-25.7h306.3
						c14.1,0,25.7,11.5,25.7,25.7v43.8C1181.1,917.3,1169.6,928.8,1155.4,928.8z M849.1,836.7c-12.5,0-22.7,10.2-22.7,22.7v43.8
						c0,12.5,10.2,22.7,22.7,22.7h306.3c12.5,0,22.7-10.2,22.7-22.7v-43.8c0-12.5-10.2-22.7-22.7-22.7H849.1z"/>
				</g>
			</g>
			<g>
				<g>
					<circle class="st8" cx="1204.7" cy="915.2" r="12.1"/>
				</g>
				<g>
					<path class="st3" d="M1204.7,928.8c-7.5,0-13.6-6.1-13.6-13.6s6.1-13.6,13.6-13.6s13.6,6.1,13.6,13.6
						S1212.1,928.8,1204.7,928.8z M1204.7,904.6c-5.8,0-10.6,4.7-10.6,10.6s4.7,10.6,10.6,10.6s10.6-4.7,10.6-10.6
						S1210.5,904.6,1204.7,904.6z"/>
				</g>
			</g>
		</g>
		<g>
			<g>
				<g>
					<path class="st9" d="M966.9,2022l-335.3,2.5c0,0,82.5-584.8,76.3-674.4c-6.4-92.5-45.9-151.8-95.2-310.6
						c-17.8-57.2-29.5-92.7-25.6-104.3c3.9-11.7,49.3-217.3,47.6-258.5c-1.6-41.2,6.5-49.3,17.8-64.6c11.3-15.3,58.7-63.4,58.7-63.4
						l0.6,263c0,0,32.6-37.2,50.7-45.6l0,0c0.6-1,19.5-34.6,31.4-47.6c12.1-13.3,26-16.9,26-16.9s16.6-15.7,44.5,9.5
						c32,28.9-14.2,135.8-40.9,175.8c-5.2,7.9,1.8,94.4,10.4,124.4c7.7,26.8,72.2,60.1,125,212.4c13.3,38.2-2.1,102.4-9.2,197.6
						c-3.3,45,3.4,334.1,7.5,418.9C961.2,1924.7,966.9,2022,966.9,2022z"/>
				</g>
				<g>
					<path class="st3" d="M631.6,2026c-0.4,0-0.8-0.2-1.1-0.5c-0.3-0.3-0.4-0.8-0.4-1.2c0.8-5.8,82.4-585.7,76.2-674.1
						c-4-57.4-21.1-102.9-44.7-165.8c-14.9-39.6-31.8-84.5-50.4-144.5c-1.4-4.6-2.8-9.1-4.2-13.4c-15.7-50.3-25.1-80.6-21.4-91.8
						c4.7-14.1,49.2-217.6,47.6-258c-1.5-39.2,5.8-49.1,16.1-62.9c0.7-0.9,1.3-1.8,2-2.7c11.2-15.2,56.9-61.6,58.8-63.6
						c0.4-0.4,1.1-0.6,1.6-0.3c0.6,0.2,0.9,0.8,0.9,1.4l0.6,259.1c8.1-9,32.7-35.4,48.1-42.9c2.8-5,20.1-35.1,31.4-47.5
						c11.3-12.5,24.1-16.6,26.3-17.2c2.5-2,19.7-14.3,46.2,9.7c18.3,16.5,11.2,55.5,2,85.3c-11.2,36.4-29.9,73.4-42.6,92.5
						c-4.6,6.9,1.8,92.6,10.6,123.2c2.3,7.9,10.1,16.8,20.8,29.2c25.2,28.9,67.5,77.3,104.2,183.1c9.2,26.5,4.9,64.5-1.1,117.2
						c-2.7,23.9-5.8,51-8,81c-3.3,44.4,3.4,334.1,7.5,418.7c4,83.8,9.7,181,9.8,182c0,0.4-0.1,0.8-0.4,1.1c-0.3,0.3-0.7,0.5-1.1,0.5
						L631.6,2026C631.6,2026,631.6,2026,631.6,2026z M709.7,552.2c-10,10.2-46.4,47.6-56,60.7c-0.7,0.9-1.3,1.8-2,2.7
						c-10.2,13.7-17,22.8-15.5,60.9c1.6,40.6-43,244.9-47.7,259c-3.4,10.3,6.5,42,21.4,90c1.4,4.3,2.7,8.8,4.2,13.4
						c18.6,59.9,35.5,104.8,50.4,144.3c23.8,63.2,40.9,108.8,44.9,166.6c6,86.4-71.1,637.8-76,673l332-2.5
						c-0.8-12.9-6-102.5-9.7-180.4c-4-84.7-10.8-374.6-7.5-419.1c2.2-30.1,5.3-57.2,8-81.1c5.9-52.3,10.2-90,1.3-115.9
						c-36.5-105.3-78.5-153.4-103.6-182.1c-11-12.6-19-21.8-21.5-30.3c-8-27.8-16.2-116.6-10.2-125.7c12.5-18.8,31.1-55.6,42.2-91.7
						c8.9-29,16-66.7-1.1-82.2c-26.4-23.9-41.8-10.1-42.4-9.5c-0.2,0.2-0.4,0.3-0.6,0.4c-0.1,0-13.6,3.7-25.2,16.4
						c-11.4,12.5-29.1,43.7-31.2,47.3c-0.2,0.3-0.4,0.5-0.7,0.7c-17.6,8.2-49.8,44.9-50.2,45.3c-0.4,0.5-1.1,0.6-1.7,0.4
						c-0.6-0.2-1-0.8-1-1.4L709.7,552.2z"/>
				</g>
			</g>
			<g>
				<path class="st10" d="M846.6,715.1c-0.7,15.1-23.4,57.3-29.7,58.6c-6.3,1.3-27.4-10.6-54.4-7.7l0,0c0.6-1,19.5-34.6,31.4-47.6
					c12.1-13.3,26-16.9,26-16.9S847.2,700,846.6,715.1z"/>
				<path class="st3" d="M815.7,775.3c-2.6,0-6.3-1.1-11.1-2.5c-9.9-2.9-24.8-7.2-42-5.4c-0.5,0.1-1-0.2-1.3-0.6
					c-0.3-0.4-0.4-0.9-0.3-1.4c0-0.1,0.1-0.2,0.1-0.3c2-3.6,20-35.2,31.6-47.9c12.2-13.5,26.1-17.2,26.7-17.3c0.1,0,0.2,0,0.3,0
					c0.7,0,17.6-0.8,25,6.5c2.4,2.4,3.5,5.3,3.4,8.8l-1.5-0.1l1.5,0.1c-0.6,14.7-23.2,58.4-30.9,60
					C816.7,775.2,816.2,775.3,815.7,775.3z M771.1,764c14,0,26,3.5,34.4,5.9c4.9,1.4,9.2,2.7,11,2.3c5-1,27.9-42.1,28.5-57.2
					c0.1-2.6-0.7-4.7-2.5-6.5c-6.1-6-20.8-5.7-22.5-5.6c-1.5,0.4-14.1,4.4-25.1,16.4c-10,11-24.9,36.5-29.8,44.9
					C767.2,764.1,769.1,764,771.1,764z"/>
			</g>
			<g>
				<path class="st3" d="M711.8,811.6c-4,5.8-5.8,9.8-6.7,14.4c-0.9,4.6,0.3,56.5,0.3,67.1c0,10.6-5.5,53.1-6.9,74.4
					c-1.4,21.3-8.2,64.6-8.2,64.6s-1.6-59.2,0.2-85.2s4.4-43.7,2.6-58.7c-1.7-15-4-65.3-1.7-72.8c2.3-7.5,20.3-31.3,20.3-31.3
					L711.8,811.6z"/>
				<path class="st3" d="M690.3,1033.7C690.2,1033.7,690.2,1033.7,690.3,1033.7c-0.9-0.1-1.5-0.7-1.5-1.5c0-0.6-1.6-59.6,0.2-85.3
					c0.5-7.2,1-14,1.5-19.9c1.3-15.5,2.3-27.8,1.1-38.5c-1.7-14.7-4.1-65.4-1.6-73.4c2.4-7.7,19.8-30.7,20.6-31.7
					c0.4-0.5,1.1-0.7,1.7-0.5c0.6,0.2,1,0.8,1,1.4l0.1,27.4c0,0.3-0.1,0.6-0.3,0.9c-3.7,5.4-5.6,9.3-6.5,13.9
					c-0.6,3.1-0.2,31,0.1,49.5c0.1,7.6,0.2,14.3,0.2,17.3c0,5.7-1.6,20.5-3.2,36.1c-1.5,14-3,28.4-3.7,38.4
					c-1.4,21.1-8.1,64.3-8.2,64.8C691.6,1033.2,691,1033.7,690.3,1033.7z M710.3,788.8c-5.1,6.9-15.7,21.7-17.4,27.2
					c-2.1,7-0.1,56.7,1.7,72.2c1.3,11,0.2,23.4-1.1,39.1c-0.5,5.9-1.1,12.7-1.5,19.9c-1.1,16.7-0.8,47.6-0.5,67.2
					c2.1-14.5,4.7-34.5,5.5-46.9c0.7-10,2.2-24.5,3.7-38.5c1.7-15.5,3.2-30.2,3.2-35.8c0-3-0.1-9.6-0.2-17.3
					c-0.4-25.6-0.7-47,0-50.2c1-4.9,2.9-9,6.7-14.6L710.3,788.8z"/>
			</g>
		</g>
		<g>
			<g>
				<g>
					<path class="st9" d="M1008,2022l335.3,2.5c0,0-82.5-584.8-76.3-674.4c6.4-92.5,45.9-151.8,95.2-310.6
						c17.8-57.2,29.5-92.7,25.6-104.3c-3.9-11.7-49.3-217.3-47.6-258.5c1.6-41.2-6.5-49.3-17.8-64.6c-11.3-15.3-58.7-85.1-58.7-85.1
						l0.1,283c0,0-33.3-35.5-51.4-44l0,0c-0.6-1-19.5-34.6-31.4-47.6c-12.1-13.3-26-16.9-26-16.9s-16.6-15.7-44.5,9.5
						c-32,28.9,14.2,135.8,40.9,175.8c5.2,7.9-1.8,94.4-10.4,124.4c-7.7,26.8-84.3,57.1-137.1,209.4c-13.3,38.2-3.5,110.6,3.6,205.8
						c3.3,45,14.3,328.9,10.3,413.6C1013.8,1924.7,1008,2022,1008,2022z"/>
				</g>
				<g>
					<path class="st3" d="M1343.3,2026C1343.3,2026,1343.3,2026,1343.3,2026l-335.3-2.5c-0.4,0-0.8-0.2-1.1-0.5
						c-0.3-0.3-0.4-0.7-0.4-1.1c0.1-1,5.8-98.2,9.8-182c4.1-86-7-369.5-10.3-413.5c-1.3-17.7-2.7-34.5-4.1-50.8
						c-5.8-69.4-10.3-124.2,0.6-155.6c36.9-106.3,85.1-153.2,114-181.2c12.2-11.8,20.9-20.3,23.2-28.1
						c8.8-30.6,15.2-116.3,10.6-123.2c-12.7-19-31.4-56.1-42.6-92.5c-9.2-29.8-16.3-68.8,2-85.3c26.5-23.9,43.7-11.7,46.2-9.7
						c2.3,0.7,15,4.8,26.3,17.2c11.3,12.4,28.6,42.6,31.4,47.5c15.4,7.5,40.6,32.9,48.8,41.4l-0.1-279.3c0-0.7,0.4-1.2,1.1-1.4
						c0.6-0.2,1.3,0,1.7,0.6c0.5,0.7,47.5,69.9,58.7,85.1c0.7,0.9,1.3,1.8,2,2.7c10.2,13.7,17.6,23.6,16.1,62.9
						c-1.6,40.4,42.9,243.9,47.6,258c3.7,11.2-5.7,41.5-21.4,91.8c-1.4,4.3-2.7,8.8-4.2,13.4c-18.6,60-35.5,104.9-50.4,144.5
						c-23.7,62.9-40.8,108.4-44.7,165.8c-6.1,88.4,75.4,668.3,76.2,674.1c0.1,0.4-0.1,0.9-0.4,1.2
						C1344.1,2025.8,1343.7,2026,1343.3,2026z M1009.6,2020.5l332,2.5c-4.9-35.2-82-586.6-76-673c4-57.8,21.2-103.5,44.9-166.6
						c14.9-39.6,31.8-84.4,50.4-144.3c1.4-4.6,2.8-9.1,4.2-13.5c14.9-48,24.8-79.7,21.4-89.9c-4.7-14.1-49.3-218.4-47.7-259
						c1.5-38.2-5.3-47.2-15.5-60.9c-0.7-0.9-1.3-1.8-2-2.7c-9.6-13-45.7-66-56-81.1l0.1,278.2c0,0.6-0.4,1.2-0.9,1.4
						c-0.6,0.2-1.2,0.1-1.6-0.4c-0.3-0.4-33.3-35.4-50.9-43.6c-0.3-0.2-0.6-0.4-0.7-0.7c-2.3-4-19.9-34.9-31.1-47.3
						c-11.6-12.8-25.1-16.4-25.2-16.4c-0.2-0.1-0.5-0.2-0.7-0.4c-0.6-0.6-16-14.4-42.4,9.5c-17.1,15.5-10,53.2-1.1,82.2
						c11.1,36.1,29.7,72.8,42.2,91.7c6,9.1-2.2,97.9-10.2,125.7c-2.5,8.5-11.5,17.3-24,29.4c-28.6,27.8-76.6,74.4-113.2,180
						c-10.7,30.8-6.1,85.4-0.4,154.4c1.4,16.3,2.7,33.1,4.1,50.8c3.3,44,14.4,327.8,10.3,413.8
						C1015.6,1918,1010.3,2007.6,1009.6,2020.5z"/>
				</g>
			</g>
			<g>
				<path class="st10" d="M1128.4,715.1c0.7,15.1,23.4,57.3,29.7,58.6c6.3,1.3,27.4-10.6,54.4-7.7l0,0c-0.6-1-19.5-34.6-31.4-47.6
					c-12.1-13.3-26-16.9-26-16.9S1127.7,700,1128.4,715.1z"/>
				<path class="st3" d="M1159.2,775.3c-0.5,0-1,0-1.4-0.1c-7.7-1.6-30.3-45.3-30.9-60l0,0c-0.1-3.4,1-6.4,3.4-8.8
					c7.3-7.3,24.2-6.5,25-6.5c0.1,0,0.2,0,0.3,0c0.6,0.2,14.5,3.9,26.7,17.3c11.6,12.7,29.5,44.3,31.6,47.9c0.1,0.1,0.1,0.2,0.1,0.3
					c0.1,0.5,0,1-0.3,1.4c-0.3,0.4-0.8,0.6-1.3,0.5c-17.2-1.9-32.2,2.5-42,5.4C1165.5,774.2,1161.8,775.3,1159.2,775.3z M1129.9,715
					c0.7,15.1,23.6,56.2,28.5,57.2c1.9,0.4,6.1-0.9,11-2.3c9.6-2.8,23.8-6.9,40.3-5.7c-4.9-8.5-19.8-34-29.8-44.9
					c-11-12-23.6-16-25.1-16.4c-1.7-0.1-16.5-0.4-22.5,5.6C1130.6,710.3,1129.8,712.4,1129.9,715L1129.9,715z"/>
			</g>
			<g>
				<path class="st3" d="M1263.8,809.9c0,0,9.2,10.7,10.5,15.2c6.4,22.2,7.7,78.2,7.7,88.9c0,10.6-2.6,34.9-1.2,56.1
					c1.4,21.3-3.8,83.5-3.8,83.5s15-49.2,16.5-82.8c1.1-26,4.5-48.3,4.2-66.5c-0.2-15.1-3.8-68.2-6.1-75.7c-2.3-7.5-27.7-64-27.7-64
					V809.9z"/>
				<path class="st3" d="M1277,1055.1c-0.1,0-0.2,0-0.3,0c-0.8-0.1-1.3-0.8-1.2-1.6c0.1-0.6,5.1-62.4,3.8-83.3
					c-0.9-14.4,0-30.5,0.6-42.2c0.3-5.7,0.6-10.6,0.6-14c0-12.3-1.4-66.7-7.6-88.4c-1-3.5-7.7-11.8-10.2-14.7
					c-0.2-0.3-0.4-0.6-0.4-1v-45.3c0-0.7,0.5-1.3,1.2-1.5c0.7-0.1,1.4,0.2,1.7,0.9c1,2.3,25.5,56.7,27.8,64.2
					c2.4,7.9,6,62.1,6.2,76.1c0.2,10.4-0.9,22.3-2,34.9c-0.9,10.1-1.8,20.5-2.3,31.7c-1.5,33.4-16.4,82.7-16.5,83.2
					C1278.2,1054.7,1277.6,1055.1,1277,1055.1z M1265.3,809.4c1.9,2.2,9.2,11,10.4,15.4c6.3,22.1,7.7,76.9,7.7,89.3
					c0,3.5-0.3,8.5-0.6,14.2c-0.7,11.6-1.6,27.6-0.6,41.8c1,14.8-1.2,48.7-2.6,68.5c4.5-17.1,11.3-46,12.3-67.8
					c0.5-11.3,1.4-21.8,2.3-31.8c1.1-13.1,2.1-24.4,1.9-34.6c-0.2-15.2-3.9-68.1-6-75.2c-1.8-5.8-18.1-42.4-24.8-57.5V809.4z"/>
			</g>
		</g>
		<g>
			<g>
				<g>
					<rect x="950.4" y="1100.7" class="st11" width="58.3" height="82.7"/>
				</g>
				<g>
					<path class="st3" d="M1008.8,1184.9h-58.3c-0.8,0-1.5-0.7-1.5-1.5v-82.7c0-0.8,0.7-1.5,1.5-1.5h58.3c0.8,0,1.5,0.7,1.5,1.5
						v82.7C1010.3,1184.2,1009.6,1184.9,1008.8,1184.9z M951.9,1181.9h55.3v-79.7h-55.3V1181.9z"/>
				</g>
			</g>
			<g>
				<g>
					<path class="st11" d="M977.1,1335.5c-112,0-266.2-8.5-274.1-9c-6.4-0.4-11.3-5.8-10.9-12.2c0.4-6.4,5.8-11.3,12.2-10.9
						c2.4,0.1,236.6,13.1,338,7.5c101.6-5.6,229.2-22.9,230.4-23.1c6.3-0.9,12.2,3.6,13.1,9.9s-3.6,12.2-9.9,13.1
						c-1.3,0.2-129.8,17.6-232.3,23.3C1024.9,1335.1,1002,1335.5,977.1,1335.5z"/>
				</g>
				<g>
					<path class="st3" d="M977.1,1337c-112.2,0-267.6-8.6-274.2-9c-7.2-0.4-12.7-6.6-12.3-13.8c0.2-3.5,1.7-6.7,4.3-9
						c2.6-2.3,6-3.5,9.5-3.3c2.3,0.1,237.2,13.1,337.8,7.5c102-5.6,229-22.9,230.3-23.1c7.1-1,13.8,4.1,14.7,11.2
						c1,7.2-4,13.8-11.2,14.7c-1.3,0.2-129.6,17.6-232.4,23.3C1026.1,1336.5,1003.7,1337,977.1,1337z M703.7,1304.9
						c-2.5,0-4.8,0.9-6.7,2.6c-2,1.8-3.2,4.3-3.3,7c-0.3,5.6,4,10.3,9.5,10.6c6.6,0.4,161.9,9,274,9c26.6,0,48.9-0.5,66.3-1.4
						c102.7-5.7,230.9-23.1,232.2-23.3c5.5-0.8,9.4-5.9,8.6-11.4c-0.8-5.5-5.9-9.4-11.4-8.6c-1.3,0.2-128.4,17.5-230.6,23.1
						c-100.7,5.5-335.8-7.4-338.1-7.5C704,1304.9,703.8,1304.9,703.7,1304.9z"/>
				</g>
			</g>
			<g>
				<g>
					<path class="st11" d="M919.7,1526.1c-6.3,0-11.4-5-11.6-11.3c0-2-0.9-48.5,11.6-91.6c15.2-52.5,73.9-82.7,76.4-84
						c5.7-2.9,12.7-0.6,15.6,5.1c2.9,5.7,0.6,12.7-5.1,15.6l0,0c-0.5,0.3-52.2,27.1-64.6,69.8c-11.5,39.6-10.7,84.1-10.7,84.6
						c0.1,6.4-4.9,11.7-11.3,11.8C919.9,1526.1,919.8,1526.1,919.7,1526.1z"/>
				</g>
				<g>
					<path class="st3" d="M919.7,1527.6c-7.1,0-12.9-5.7-13.1-12.8c0-2-0.9-48.7,11.6-92c15.4-53.1,74.6-83.6,77.2-84.9
						c6.4-3.3,14.3-0.7,17.6,5.8c3.3,6.4,0.7,14.3-5.7,17.6c-0.5,0.3-51.7,26.8-63.9,68.8c-11.4,39.3-10.6,83.7-10.6,84.1
						c0.2,7.2-5.6,13.2-12.8,13.4L919.7,1527.6C919.7,1527.6,919.7,1527.6,919.7,1527.6z M1001.3,1339.5c-1.5,0-3.1,0.3-4.5,1.1
						c-2.5,1.3-60.6,31.2-75.6,83.1c-12.4,42.9-11.6,89.2-11.5,91.1c0.1,5.4,4.6,9.9,10.1,9.9c0,0,0,0,0,0l0,0l0.2,0
						c5.5-0.1,10-4.7,9.9-10.3c0-0.4-0.8-45.3,10.7-85c12.6-43.4,64.8-70.4,65.4-70.7c5-2.5,6.9-8.6,4.4-13.6
						C1008.6,1341.5,1005,1339.5,1001.3,1339.5z"/>
				</g>
			</g>
			<g>
				<g>
					<path class="st11" d="M915.6,1366.2c-96.8,0-204.2-12.9-209.9-13.6c-6.4-0.8-10.9-6.6-10.1-12.9c0.8-6.4,6.6-10.9,12.9-10.1
						c1.8,0.2,176.7,21.2,279.2,10.2c134.5-14.5,278.9-1.4,280.4-1.2c6.4,0.6,11.1,6.2,10.5,12.6c-0.6,6.4-6.3,11.1-12.6,10.5
						c-1.4-0.1-143.6-13-275.8,1.2C967.7,1365.3,942,1366.2,915.6,1366.2z"/>
				</g>
				<g>
					<path class="st3" d="M915.6,1367.7c-97.1,0-205.5-13-210.1-13.6c-7.2-0.9-12.3-7.4-11.4-14.6c0.4-3.5,2.2-6.6,4.9-8.7
						c2.8-2.2,6.2-3.1,9.7-2.7c1.8,0.2,176.3,21.2,278.8,10.2c135-14.5,279.2-1.4,280.7-1.2c7.2,0.7,12.5,7.1,11.8,14.3
						c-0.3,3.5-2,6.6-4.7,8.9c-2.7,2.2-6.1,3.3-9.6,3c-1.4-0.1-144-13-275.5,1.2C969.5,1366.6,944.3,1367.7,915.6,1367.7z
						 M707.1,1331c-2.2,0-4.4,0.7-6.2,2.1c-2.1,1.7-3.5,4.1-3.8,6.7c-0.7,5.5,3.3,10.6,8.8,11.2c4.6,0.6,112.8,13.6,209.7,13.6
						c28.6,0,53.6-1.1,74.4-3.4c131.7-14.2,274.6-1.3,276.1-1.2c2.7,0.3,5.3-0.6,7.4-2.3c2.1-1.7,3.4-4.2,3.6-6.8
						c0.5-5.5-3.6-10.5-9.1-11c-1.4-0.1-145.4-13.3-280.1,1.2c-102.9,11.1-277.8-9.9-279.5-10.2C707.9,1331.1,707.5,1331,707.1,1331
						z"/>
				</g>
			</g>
			<g>
				<g>
					<path class="st11" d="M1266,1415.2c-62.4,0-115.9-10-163.1-18.8c-34.7-6.5-67.5-12.6-100.4-14.4c-97.4-5.3-291.7,21.7-293.7,22
						c-6.3,0.9-12.2-3.5-13.1-9.9c-0.9-6.3,3.5-12.2,9.9-13.1c8.1-1.1,198.5-27.6,298.2-22.2c34.4,1.9,67.9,8.1,103.4,14.7
						c48.8,9.1,99.2,18.5,159.9,18.4c0,0,0,0,0,0c6.4,0,11.6,5.2,11.6,11.6c0,6.4-5.2,11.6-11.6,11.6
						C1266.7,1415.2,1266.3,1415.2,1266,1415.2z"/>
				</g>
				<g>
					<path class="st3" d="M1266,1416.7c-62.5,0-116.1-10-163.4-18.8c-34.7-6.5-67.4-12.6-100.2-14.4c-97.2-5.3-291.4,21.7-293.4,22
						c-7.2,1-13.8-4-14.8-11.2c-0.5-3.5,0.4-6.9,2.5-9.7c2.1-2.8,5.2-4.6,8.6-5.1c8.1-1.1,198.6-27.6,298.4-22.2
						c34.5,1.9,68.1,8.1,103.6,14.8c48.4,9,98.5,18.4,158.5,18.4c0.4,0,0.7,0,1.1,0c7.2,0,13.1,5.9,13.1,13.1
						c0,7.2-5.9,13.1-13.1,13.1L1266,1416.7z M974.4,1379.9c10,0,19.4,0.2,28.1,0.7c33,1.8,65.8,7.9,100.6,14.4
						c47.2,8.8,100.6,18.8,162.8,18.8l1.1,0c5.6,0,10.1-4.5,10.1-10.1c0-5.6-4.5-10.1-10.1-10.1c-0.4,0-0.7,0-1.1,0
						c-60.4,0-110.5-9.4-159.1-18.4c-35.5-6.6-68.9-12.9-103.2-14.7c-99.5-5.4-289.8,21.1-297.9,22.2c-2.7,0.4-5,1.8-6.7,3.9
						c-1.6,2.2-2.3,4.8-1.9,7.5c0.8,5.5,5.9,9.4,11.4,8.6C710.3,1402.3,872,1379.9,974.4,1379.9z"/>
				</g>
			</g>
			<g>
				<g>
					<path class="st11" d="M1274.3,1475.8c-0.9,0-1.9-0.1-2.8-0.4c-2.1-0.5-208.2-52-315.3-53.2c-107.1-1.2-248.6,28.3-250.1,28.6
						c-6.3,1.3-12.4-2.7-13.7-9c-1.3-6.3,2.7-12.4,9-13.7c5.9-1.2,145.4-30.4,255.1-29.1c109.8,1.3,312.1,51.8,320.7,53.9
						c6.2,1.6,10,7.9,8.4,14.1C1284.2,1472.3,1279.5,1475.8,1274.3,1475.8z"/>
				</g>
				<g>
					<path class="st3" d="M1274.3,1477.3c-1.1,0-2.1-0.1-3.2-0.4c-2.1-0.5-208.2-52-315-53.2c-106.7-1.2-248.3,28.3-249.7,28.6
						c-7.1,1.5-14-3.1-15.5-10.1c-1.5-7.1,3-14,10.1-15.5c5.9-1.2,145.5-30.4,255.5-29.1c110,1.3,312.5,51.8,321,54
						c3.4,0.9,6.2,3,8,6c1.8,3,2.3,6.5,1.5,9.9C1285.5,1473.3,1280.3,1477.3,1274.3,1477.3z M949.6,1420.7c2.2,0,4.4,0,6.6,0
						c107.1,1.2,313.6,52.8,315.7,53.3c0.8,0.2,1.6,0.3,2.5,0.3c4.6,0,8.7-3.1,9.8-7.6c0.7-2.6,0.3-5.3-1.1-7.6
						c-1.4-2.3-3.6-4-6.2-4.6c-8.6-2.1-210.7-52.6-320.3-53.9c-109.6-1.3-248.9,27.8-254.8,29.1c-5.4,1.1-8.9,6.5-7.8,12
						c1.1,5.4,6.5,8.9,12,7.8C707.2,1449.1,843.4,1420.7,949.6,1420.7z"/>
				</g>
			</g>
			<g>
				<g>
					<path class="st11" d="M694.8,1540.6c-5.4,0-10.2-3.8-11.3-9.2c-1.3-6.3,2.7-12.4,9-13.7c1.5-0.3,152.6-31.8,263.2-58.6
						c111.7-27,311.5-44,313.5-44.2c6.4-0.5,12,4.2,12.5,10.6c0.5,6.4-4.2,12-10.6,12.5c-2,0.2-200,17-310,43.6
						c-111,26.8-262.4,58.4-264,58.7C696.4,1540.5,695.6,1540.6,694.8,1540.6z"/>
				</g>
				<g>
					<path class="st3" d="M694.8,1542.1c-6.2,0-11.6-4.4-12.8-10.4c-0.7-3.4,0-6.9,1.9-9.8c1.9-2.9,4.9-4.9,8.3-5.6
						c6.2-1.3,154-32.1,263.2-58.5c111.6-27,311.7-44.1,313.7-44.2c7.2-0.6,13.5,4.8,14.1,12c0.3,3.5-0.8,6.9-3,9.5
						c-2.3,2.7-5.4,4.3-8.9,4.6c-2,0.2-199.8,17-309.8,43.6c-111.7,27-262.5,58.4-264,58.7C696.6,1542,695.7,1542.1,694.8,1542.1z
						 M1270.2,1416.4c-0.3,0-0.6,0-0.8,0c-2,0.2-201.8,17.2-313.3,44.2c-109.2,26.4-257,57.3-263.3,58.6c-2.7,0.6-4.9,2.1-6.4,4.4
						c-1.5,2.3-2,5-1.4,7.6c1,4.7,5.1,8,9.9,8c0.7,0,1.4-0.1,2.1-0.2c1.5-0.3,152.3-31.7,263.9-58.7
						c110.2-26.7,308.2-43.5,310.2-43.7c2.7-0.2,5.1-1.5,6.9-3.5c1.7-2.1,2.6-4.7,2.3-7.4
						C1279.8,1420.4,1275.3,1416.4,1270.2,1416.4z"/>
				</g>
			</g>
			<g>
				<g>
					<path class="st11" d="M698.7,1503.8c-6.1,0-11.3-4.8-11.6-11c-0.3-6.4,4.6-11.8,11-12.1c68.9-3.3,137.3-23.4,187.8-55
						c51.4-32.2,80-73.3,80.4-115.7c0.4-35.8,1.7-102.5,1.7-103.2c0.1-6.4,5.5-11.5,11.8-11.4c6.4,0.1,11.5,5.4,11.4,11.8
						c0,0.7-1.4,67.3-1.7,103c-0.5,50.6-32.9,98.6-91.3,135.1c-53.7,33.7-126.2,55-199,58.5C699.1,1503.8,698.9,1503.8,698.7,1503.8
						z"/>
				</g>
				<g>
					<path class="st3" d="M698.7,1505.3c-7,0-12.7-5.5-13.1-12.5c-0.3-7.2,5.2-13.4,12.4-13.7c68.6-3.3,136.8-23.3,187-54.8
						c51-31.9,79.3-72.6,79.7-114.4c0.4-35.6,1.7-102.6,1.7-103.2c0.1-3.5,1.5-6.8,4-9.2c2.5-2.4,5.8-3.7,9.3-3.6
						c3.5,0.1,6.8,1.5,9.2,4c2.4,2.5,3.7,5.8,3.6,9.3c0,0.7-1.4,67.4-1.7,103c-0.5,51.1-33.2,99.5-92,136.4
						c-53.9,33.8-126.7,55.2-199.7,58.7C699.1,1505.3,698.9,1505.3,698.7,1505.3z M979.6,1196.9c-2.6,0-5.1,1-7,2.8
						c-2,1.9-3.1,4.4-3.1,7.1c0,0.7-1.4,67.6-1.7,103.2c-0.4,42.9-29.2,84.5-81.1,117c-50.7,31.7-119.4,51.9-188.5,55.2
						c-5.6,0.3-9.9,5-9.6,10.6c0.3,5.6,5,9.9,10.6,9.6c72.5-3.5,144.7-24.8,198.2-58.3c57.9-36.3,90.1-83.8,90.6-133.9
						c0.4-35.6,1.7-102.3,1.7-103c0.1-2.7-0.9-5.3-2.8-7.2s-4.4-3-7.1-3.1C979.7,1196.9,979.7,1196.9,979.6,1196.9z"/>
				</g>
			</g>
			<g>
				<g>
					<rect x="892.3" y="1458.6" class="st11" width="58.3" height="74.6"/>
				</g>
				<g>
					<path class="st3" d="M950.6,1534.7h-58.3c-0.8,0-1.5-0.7-1.5-1.5v-74.6c0-0.8,0.7-1.5,1.5-1.5h58.3c0.8,0,1.5,0.7,1.5,1.5v74.6
						C952.1,1534,951.4,1534.7,950.6,1534.7z M893.8,1531.7h55.3v-71.6h-55.3V1531.7z"/>
				</g>
			</g>
			<g>
				<g>
					<path class="st11" d="M994.2,1227.9c0,0-4.5,2.6-14.6,2.6c-9.4,0-14.6-2.6-14.6-2.6v-44.5h29.2V1227.9z"/>
				</g>
				<g>
					<path class="st3" d="M979.6,1232c-9.7,0-15-2.7-15.3-2.8c-0.5-0.3-0.8-0.8-0.8-1.3v-44.5c0-0.8,0.7-1.5,1.5-1.5h29.2
						c0.8,0,1.5,0.7,1.5,1.5v44.5c0,0.5-0.3,1-0.7,1.3C994.7,1229.3,989.9,1232,979.6,1232z M966.5,1226.9c1.8,0.7,6.3,2.1,13.1,2.1
						c7.2,0,11.5-1.4,13.1-2.1v-42h-26.2V1226.9z M994.2,1227.9L994.2,1227.9L994.2,1227.9z"/>
				</g>
			</g>
			<g>
				<g>
					<rect x="797.5" y="1529" class="st11" width="250.8" height="250.8"/>
				</g>
				<g>
					<path class="st3" d="M1048.3,1781.3H797.5c-0.8,0-1.5-0.7-1.5-1.5V1529c0-0.8,0.7-1.5,1.5-1.5h250.8c0.8,0,1.5,0.7,1.5,1.5
						v250.8C1049.8,1780.6,1049.1,1781.3,1048.3,1781.3z M799,1778.3h247.8v-247.8H799V1778.3z"/>
				</g>
			</g>
			<g>
				<g>
					<rect x="838.6" y="1779.8" class="st11" width="168.6" height="82.1"/>
				</g>
				<g>
					<path class="st3" d="M1007.2,1863.4H838.6c-0.8,0-1.5-0.7-1.5-1.5v-82.1c0-0.8,0.7-1.5,1.5-1.5h168.6c0.8,0,1.5,0.7,1.5,1.5
						v82.1C1008.7,1862.7,1008,1863.4,1007.2,1863.4z M840.1,1860.4h165.6v-79.1H840.1V1860.4z"/>
				</g>
			</g>
			<g>
				<g>
					<path class="st11" d="M864.1,1959.9L864.1,1959.9c-4.2,0-7.6-3.4-7.6-7.6v-90.4h15.2v90.4
						C871.7,1956.5,868.3,1959.9,864.1,1959.9z"/>
				</g>
				<g>
					<path class="st3" d="M864.1,1961.4c-5,0-9.1-4.1-9.1-9.1v-90.4c0-0.8,0.7-1.5,1.5-1.5h15.2c0.8,0,1.5,0.7,1.5,1.5v90.4
						C873.2,1957.3,869.1,1961.4,864.1,1961.4z M858,1863.4v88.9c0,3.4,2.7,6.1,6.1,6.1s6.1-2.7,6.1-6.1v-88.9H858z"/>
				</g>
			</g>
			<g>
				<g>
					<path class="st11" d="M981.3,1959.9L981.3,1959.9c-4.2,0-7.6-3.4-7.6-7.6v-90.4h15.2v90.4
						C988.9,1956.5,985.5,1959.9,981.3,1959.9z"/>
				</g>
				<g>
					<path class="st3" d="M981.3,1961.4c-5,0-9.1-4.1-9.1-9.1v-90.4c0-0.8,0.7-1.5,1.5-1.5h15.2c0.8,0,1.5,0.7,1.5,1.5v90.4
						C990.4,1957.3,986.4,1961.4,981.3,1961.4z M975.2,1863.4v88.9c0,3.4,2.7,6.1,6.1,6.1s6.1-2.7,6.1-6.1v-88.9H975.2z"/>
				</g>
			</g>
			<g>
				<polygon class="st3" points="838.6,1779.8 838.6,1785.2 1007.2,1790.7 1007.2,1779.8 				"/>
				<path class="st3" d="M1007.2,1792.2C1007.2,1792.2,1007.1,1792.2,1007.2,1792.2l-168.6-5.5c-0.8,0-1.5-0.7-1.5-1.5v-5.4
					c0-0.8,0.7-1.5,1.5-1.5h168.6c0.8,0,1.5,0.7,1.5,1.5v10.9c0,0.4-0.2,0.8-0.5,1.1C1007.9,1792.1,1007.6,1792.2,1007.2,1792.2z
					 M840.1,1783.8l165.6,5.4v-7.9H840.1V1783.8z"/>
			</g>
			<g>
				<rect x="856.5" y="1861.9" class="st3" width="15.2" height="32.9"/>
				<path class="st3" d="M871.7,1896.3h-15.2c-0.8,0-1.5-0.7-1.5-1.5v-32.9c0-0.8,0.7-1.5,1.5-1.5h15.2c0.8,0,1.5,0.7,1.5,1.5v32.9
					C873.2,1895.7,872.5,1896.3,871.7,1896.3z M858,1893.3h12.2v-29.9H858V1893.3z"/>
			</g>
			<g>
				<rect x="973.7" y="1861.9" class="st3" width="15.2" height="32.9"/>
				<path class="st3" d="M988.9,1896.3h-15.2c-0.8,0-1.5-0.7-1.5-1.5v-32.9c0-0.8,0.7-1.5,1.5-1.5h15.2c0.8,0,1.5,0.7,1.5,1.5v32.9
					C990.4,1895.7,989.8,1896.3,988.9,1896.3z M975.2,1893.3h12.2v-29.9h-12.2V1893.3z"/>
			</g>
		</g>
	</g>
</g>
</svg>
